<?xml version="1.0" encoding="UTF-8"?>
<svg id="Layer_1" xmlns="http://www.w3.org/2000/svg" version="1.1" xmlns:xlink="http://www.w3.org/1999/xlink" viewBox="0 0 1903 358.2">
  <!-- Generator: Adobe Illustrator 29.8.2, SVG Export Plug-In . SVG Version: 2.1.1 Build 3)  -->
  <defs>
    <style>
      .st0 {
        fill: #eee;
      }

      .st1 {
        fill: url(#linear-gradient);
      }
    </style>
    <linearGradient id="linear-gradient" x1="179.1" y1="357.1" x2="179.1" y2="-3.7" gradientUnits="userSpaceOnUse">
      <stop offset="0" stop-color="#ea00f7"/>
      <stop offset=".5" stop-color="#7367fb"/>
      <stop offset="1" stop-color="#00cbff"/>
    </linearGradient>
  </defs>
  <path class="st1" d="M161.1,107.9v24.1c0,2.2-1,4.4-2.8,5.7l-44.7,34.8c-3.7,2.9-3.7,8.6,0,11.5l44.7,34.8c1.8,1.4,2.8,3.5,2.8,5.7v24.6c0,6.1-7,9.5-11.8,5.8l-73.9-57.5c-1.8-1.4-2.8-3.5-2.8-5.8v-26.6c0-2.3,1-4.4,2.8-5.8l73.9-57.2c4.8-3.7,11.7-.3,11.7,5.8ZM282.7,159.9l-74.1-57.3c-4.8-3.7-11.7-.3-11.7,5.8v24.4c0,2.3,1,4.4,2.8,5.8l44.7,34.5c3.8,2.9,3.8,8.6,0,11.5l-44.7,34.8c-1.8,1.4-2.8,3.5-2.8,5.7v24.6c0,6.1,7,9.5,11.7,5.8l74.1-57.5c1.8-1.4,2.8-3.5,2.8-5.8v-26.6c0-2.3-1-4.4-2.8-5.8ZM240.4,358.2h-122.6c-8.3,0-16.2-3.3-22-9.1L9.1,262.4c-5.8-5.8-9.1-13.8-9.1-22v-122.6c0-8.3,3.3-16.2,9.1-22L95.8,9.1c5.8-5.8,13.8-9.1,22-9.1h122.6c8.3,0,16.2,3.3,22,9.1l86.7,86.7c5.8,5.8,9.1,13.8,9.1,22v122.6c0,8.3-3.3,16.2-9.1,22l-86.7,86.7c-5.8,5.8-13.8,9.1-22,9.1ZM225.2,321.6c8.3,0,16.2-3.3,22-9.1l65.2-65.2c5.8-5.8,9.1-13.8,9.1-22v-92.2c0-8.3-3.3-16.2-9.1-22l-65.2-65.2c-5.8-5.8-13.8-9.1-22-9.1h-92.2c-8.3,0-16.2,3.3-22,9.1L45.7,110.9c-5.8,5.8-9.1,13.8-9.1,22v92.2c0,8.3,3.3,16.2,9.1,22l65.2,65.2c5.8,5.8,13.8,9.1,22,9.1h92.2Z"/>
  <path id="Text_black" class="st0" d="M672.4,198.3c0,12.2-2.1,23.4-6.3,33.7-4.2,10.2-10,19.1-17.5,26.5s-16.3,13.2-26.5,17.4-21.3,6.2-33.3,6.2h-49.2c-12,0-23.1-2.1-33.4-6.2-10.2-4.1-19.1-9.9-26.5-17.4-7.5-7.4-13.3-16.3-17.5-26.5-4.2-10.2-6.4-21.5-6.4-33.7v-38.3c0-12.1,2.1-23.3,6.4-33.6,4.2-10.3,10.1-19.1,17.5-26.5,7.4-7.4,16.3-13.2,26.5-17.4,10.2-4.2,21.4-6.3,33.4-6.3h49.2c12,0,23.1,2.1,33.3,6.3s19,10,26.5,17.4c7.4,7.4,13.3,16.3,17.5,26.5,4.2,10.3,6.3,21.5,6.3,33.6v38.3ZM636.1,160c0-7.2-1.1-13.7-3.4-19.5-2.3-5.8-5.5-10.8-9.6-14.9-4.1-4.1-9.1-7.4-14.9-9.6-5.8-2.3-12.2-3.4-19.2-3.4h-49.2c-7.1,0-13.5,1.1-19.3,3.4-5.8,2.3-10.8,5.5-15,9.6-4.2,4.1-7.4,9.1-9.7,14.9-2.3,5.8-3.4,12.3-3.4,19.5v38.3c0,7.2,1.1,13.7,3.4,19.5,2.3,5.8,5.5,10.8,9.7,14.9,4.2,4.1,9.2,7.4,15,9.6,5.8,2.3,12.3,3.4,19.3,3.4h48.9c7.1,0,13.5-1.1,19.3-3.4,5.8-2.3,10.8-5.5,15-9.6,4.2-4.1,7.4-9.1,9.7-14.9,2.3-5.8,3.4-12.3,3.4-19.5v-38.3ZM870.1,228.3c0,6.2-.8,11.9-2.4,16.8-1.6,5-3.7,9.4-6.3,13.1-2.6,3.8-5.6,7-9.1,9.6-3.4,2.7-7.1,4.8-10.8,6.5-3.8,1.7-7.6,2.9-11.4,3.7-3.8.8-7.5,1.2-10.9,1.2h-65.5v-36.3h65.5c4.8,0,8.5-1.3,10.9-3.8,2.4-2.5,3.6-6.1,3.6-10.9v-48.9c0-5-1.2-8.8-3.7-11.2-2.5-2.4-6.1-3.6-10.8-3.6h-65.2c-4.9,0-8.7,1.2-11.2,3.7-2.5,2.5-3.8,6.1-3.8,10.8v147.4h-36.3v-147.4c0-6.2.8-11.8,2.4-16.8,1.6-4.9,3.7-9.3,6.4-13.1,2.7-3.8,5.7-7,9.1-9.6,3.4-2.7,7.1-4.8,10.8-6.5s7.6-2.9,11.5-3.7c3.9-.8,7.5-1.2,10.8-1.2h65.5c6.2,0,11.8.8,16.8,2.4,4.9,1.6,9.3,3.7,13.1,6.3,3.8,2.6,7,5.6,9.6,9.1,2.7,3.4,4.8,7.1,6.5,10.8s2.9,7.6,3.7,11.4c.8,3.8,1.2,7.5,1.2,10.9v49.2ZM1037.7,164.6h-63.4v114.7h-36.7v-114.7h-47.2v-36.3h47.2v-49.3h36.7v49.3h63.4v36.3ZM1098.5,97.3h-36.3v-32.8h36.3v32.8ZM1098.5,279.3h-36.3v-151h36.3v151ZM1316.6,279.3h-131c-3.4,0-7-.4-10.8-1.2-3.9-.8-7.7-2-11.5-3.7-3.8-1.7-7.4-3.8-10.8-6.5-3.4-2.7-6.5-5.9-9.1-9.6-2.7-3.8-4.8-8.1-6.4-13.1-1.6-5-2.4-10.6-2.4-16.8v-98.3c0-3.4.4-7,1.2-10.8.8-3.9,2-7.7,3.7-11.5,1.7-3.8,3.9-7.4,6.6-10.8,2.7-3.4,5.9-6.5,9.7-9.1,3.8-2.7,8.1-4.8,13.1-6.4,4.9-1.6,10.5-2.4,16.8-2.4h131v36.3h-131c-4.7,0-8.4,1.3-10.9,3.8-2.5,2.5-3.8,6.2-3.8,11.2v98.1c0,4.7,1.3,8.3,3.8,10.8,2.6,2.6,6.2,3.8,10.8,3.8h131v36.3ZM1509.4,228.3c0,6.2-.8,11.9-2.4,16.8-1.6,5-3.7,9.4-6.3,13.1-2.6,3.8-5.6,7-9.1,9.6-3.4,2.7-7.1,4.8-10.8,6.5-3.8,1.7-7.6,2.9-11.5,3.7-3.9.8-7.5,1.2-11,1.2h-65.5c-5,0-10.5-.9-16.5-2.7-6-1.8-11.5-4.7-16.6-8.7-5.1-4.1-9.3-9.3-12.7-15.8-3.4-6.5-5.1-14.4-5.1-23.8v-49.2c0-9.3,1.7-17.2,5.1-23.7,3.4-6.5,7.6-11.7,12.7-15.8,5.1-4.1,10.6-7,16.6-8.7,6-1.8,11.5-2.7,16.5-2.7h65.5c9.3,0,17.2,1.7,23.7,5,6.5,3.4,11.8,7.6,15.8,12.6,4,5.1,6.9,10.6,8.7,16.6,1.8,6,2.7,11.5,2.7,16.6v49.2ZM1473.1,179.4c0-5-1.3-8.8-3.8-11.2-2.5-2.4-6.1-3.6-10.9-3.6h-65.2c-4.8,0-8.5,1.2-11,3.7-2.5,2.5-3.8,6.1-3.8,10.8v49.2c0,4.8,1.3,8.4,3.8,10.9,2.5,2.5,6.2,3.8,11,3.8h65.2c4.9,0,8.6-1.3,11-3.8,2.4-2.5,3.6-6.1,3.6-10.9v-48.9ZM1705.9,228.3c0,6.2-.8,11.9-2.4,16.8-1.6,5-3.7,9.4-6.3,13.1-2.6,3.8-5.6,7-9.1,9.6-3.4,2.7-7.1,4.8-10.8,6.5-3.8,1.7-7.6,2.9-11.5,3.7-3.9.8-7.5,1.2-11,1.2h-65.5c-6.2,0-11.8-.8-16.8-2.4-4.9-1.6-9.3-3.7-13.1-6.4-3.8-2.7-7-5.7-9.6-9.1-2.7-3.4-4.8-7.1-6.5-10.8s-2.9-7.6-3.7-11.5c-.8-3.9-1.2-7.5-1.2-10.8v-49.2c0-9.3,1.7-17.2,5.1-23.7,3.4-6.5,7.6-11.7,12.7-15.8,5.1-4.1,10.6-7,16.6-8.7,6-1.8,11.5-2.7,16.5-2.7h65.5v36.3h-65.2c-4.8,0-8.5,1.2-11,3.7-2.5,2.5-3.8,6.1-3.8,10.8v48.9c0,4.9,1.2,8.7,3.7,11.2,2.5,2.5,6.1,3.8,10.8,3.8h65.5c4.9,0,8.6-1.3,11-3.8,2.4-2.5,3.6-6.1,3.6-10.9V64.5h36.3v163.8ZM1903,178.3c0,5-.9,10.5-2.7,16.3-1.8,5.8-4.6,11.2-8.6,16.2-4,5-9.1,9.1-15.5,12.5-6.4,3.4-14.1,5-23.3,5h-65.5v-34.5h65.5c4.9,0,8.8-1.5,11.5-4.5,2.7-3,4.1-6.8,4.1-11.2s-1.5-8.5-4.5-11.2c-3-2.7-6.7-4.1-11-4.1h-65.5c-4.9,0-8.8,1.5-11.5,4.5-2.7,3-4.1,6.8-4.1,11.2v50.7c0,4.8,1.5,8.6,4.5,11.3,3,2.7,6.8,4.1,11.2,4.1h65.2v34.6h-65.5c-5,0-10.5-.9-16.3-2.7-5.8-1.8-11.2-4.6-16.2-8.6-5-4-9.1-9.1-12.5-15.5-3.4-6.4-5-14.1-5-23.3v-51c0-5,.9-10.5,2.7-16.3,1.8-5.8,4.6-11.2,8.6-16.2,4-5,9.1-9.1,15.5-12.5,6.4-3.4,14.1-5,23.3-5h65.5c5,0,10.5.9,16.3,2.7,5.8,1.8,11.2,4.6,16.2,8.6,5,4,9.1,9.1,12.5,15.5,3.4,6.4,5,14.1,5,23.3Z"/>
</svg>